HIERARCHY
ROOT Hips
{
	OFFSET -0.179506 -22.333345 2.821913
	CHANNELS 6 Xposition Yposition Zposition Zrotation Yrotation Xrotation 
	JOINT LeftUpLeg
	{
		OFFSET 6.951974 -9.140623 -0.681533
		CHANNELS 3 Zrotation Yrotation Xrotation
		JOINT LeftLeg
		{
			OFFSET 3.427654 -37.519855 -0.449580
			CHANNELS 3 Zrotation Yrotation Xrotation
			JOINT LeftFoot
			{
				OFFSET -1.359570 -39.796059 -4.369333
				CHANNELS 3 Zrotation Yrotation Xrotation
				JOINT LeftToe
				{
					OFFSET 2.635814 -5.579078 11.928840
					CHANNELS 3 Zrotation Yrotation Xrotation
					End Site
					{
						OFFSET 0.000000 0.000000 0.000000
					}
				}
			}
		}
	}
	JOINT RightUpLeg
	{
		OFFSET -6.767048 -9.052170 -0.431982
		CHANNELS 3 Zrotation Yrotation Xrotation
		JOINT RightLeg
		{
			OFFSET -3.829005 -38.256897 -0.885003
			CHANNELS 3 Zrotation Yrotation Xrotation
			JOINT RightFoot
			{
				OFFSET 1.577377 -39.841461 -4.231180
				CHANNELS 3 Zrotation Yrotation Xrotation
				JOINT RightToe
				{
					OFFSET -2.537174 -4.814398 12.334795
					CHANNELS 3 Zrotation Yrotation Xrotation
					End Site
					{
						OFFSET 0.000000 0.000000 0.000000
					}
				}
			}
		}
	}
	JOINT Spine
	{
		OFFSET -0.253288 10.896323 -2.669631
		CHANNELS 3 Zrotation Yrotation Xrotation
		JOINT Spine1
		{
			OFFSET 0.548704 13.518043 0.109247
			CHANNELS 3 Zrotation Yrotation Xrotation
			JOINT Spine2
			{
				OFFSET 0.145701 5.292222 2.542457
				CHANNELS 3 Zrotation Yrotation Xrotation
				JOINT Neck
				{
					OFFSET -0.277840 21.387037 -4.285703
					CHANNELS 3 Zrotation Yrotation Xrotation
					JOINT Head
					{
						OFFSET 0.515184 6.496960 5.134897
						CHANNELS 3 Zrotation Yrotation Xrotation
						End Site
						{
							OFFSET 0.000000 0.000000 0.000000
						}
					}
				}
				JOINT LeftShoulder
				{
					OFFSET 7.884473 12.174932 -3.408961
					CHANNELS 3 Zrotation Yrotation Xrotation
					JOINT LeftArm
					{
						OFFSET 9.097692 3.046888 -0.886815
						CHANNELS 3 Zrotation Yrotation Xrotation
						JOINT LeftForeArm
						{
							OFFSET 25.961220 -1.277207 -2.745643
							CHANNELS 3 Zrotation Yrotation Xrotation
							JOINT LeftHand
							{
								OFFSET 24.923361 0.898606 -0.117091
								CHANNELS 3 Zrotation Yrotation Xrotation
								End Site
								{
									OFFSET 0.000000 0.000000 0.000000
								}
							}
						}
					}
				}
				JOINT RightShoulder
				{
					OFFSET -8.175920 11.883285 -3.861528
					CHANNELS 3 Zrotation Yrotation Xrotation
					JOINT RightArm
					{
						OFFSET -9.601238 3.255117 -0.914307
						CHANNELS 3 Zrotation Yrotation Xrotation
						JOINT RightForeArm
						{
							OFFSET -25.374195 -1.332924 -2.140099
							CHANNELS 3 Zrotation Yrotation Xrotation
							JOINT RightHand
							{
								OFFSET -25.529810 0.777228 -0.555919
								CHANNELS 3 Zrotation Yrotation Xrotation
								End Site
								{
									OFFSET 0.000000 0.000000 0.000000
								}
							}
						}
					}
				}
			}
		}
	}
}
MOTION
Frames: 9
Frame Time: 0.033333
-112.234253 46.874123 84.310013 -151.234257 1.710749 101.156356 17.584318 -4.760442 -48.394337 -3.434827 10.671659 41.630246 2.154682 -5.988623 -16.798790 nan nan nan -11.901987 -9.362989 4.351628 -3.077194 -8.019818 31.015333 5.556692 7.832842 -24.993019 nan nan nan -7.599309 18.656316 22.145990 -2.070868 0.098330 4.941257 1.297503 5.978440 -0.834142 1.070595 12.942741 16.378456 4.408865 4.692522 21.291180 -6.123884 -17.253558 -8.369611 -70.020849 -28.613263 17.417280 149.482475 -58.645915 -108.111655 13.426458 -14.899000 -20.422024 5.266719 22.751949 -2.175593 66.118564 35.752995 9.916882 -128.686361 49.748948 -96.293698 3.857662 7.566402 -14.972932 
-112.146278 46.914375 84.377022 -151.882224 2.102058 100.858519 17.992347 -4.418274 -47.811538 -3.343118 10.717281 41.575997 2.198393 -5.862028 -16.972025 nan nan nan -11.967200 -9.165205 4.065540 -2.938346 -7.874711 31.863936 5.509540 8.116435 -24.659125 nan nan nan -7.900763 18.281027 21.728540 -1.805697 -0.217613 5.052499 1.221400 6.001771 -0.853022 1.350578 13.373300 16.634112 4.285834 4.630619 21.601578 -5.885716 -17.053870 -8.350956 -69.744859 -28.950588 16.838654 149.159094 -58.379439 -107.450310 13.310148 -15.276864 -20.414162 5.335931 22.550683 -2.170918 67.130044 35.326741 10.503645 -130.449298 49.101023 -96.603787 5.455444 7.828649 -15.449100 
-112.050758 46.915550 84.464142 -152.692335 2.395943 100.561563 18.428620 -4.114284 -47.214687 -3.283495 10.949035 41.597386 2.169698 -5.684249 -17.047825 nan nan nan -12.182362 -8.892685 3.636949 -2.917204 -8.007127 32.635158 5.822094 8.187432 -23.759188 nan nan nan -8.344894 18.083047 21.116296 -1.564367 -0.284108 5.570122 1.253673 5.896913 -1.082443 1.505795 13.489858 17.000312 4.243362 4.735419 21.638268 -5.694815 -17.126210 -8.203042 -69.394388 -29.319496 16.479706 148.594423 -58.061015 -106.915840 14.148122 -15.268359 -19.901468 5.285797 22.582636 -2.291110 68.075766 35.017416 11.603978 -131.614423 48.159499 -97.236660 5.513433 8.056960 -15.747590 
-111.992783 46.907745 84.549980 -153.555227 2.611923 100.266526 18.724549 -3.804918 -46.601816 -3.212470 11.192635 41.594803 2.104897 -5.440082 -17.145979 nan nan nan -12.496395 -8.747981 3.206182 -2.992054 -8.057103 33.229942 6.094917 8.153964 -23.069654 nan nan nan -8.730979 17.936682 20.640145 -1.447131 -0.311962 5.800884 1.283115 5.624352 -1.316459 1.653383 13.491854 17.477146 4.222860 4.973394 21.832385 -5.521507 -17.154674 -8.081294 -68.726465 -29.524044 16.060647 148.444103 -57.659680 -106.963498 14.657287 -14.852092 -19.226732 5.517565 22.334273 -2.443539 68.820300 34.678752 12.476833 -132.968630 47.762016 -98.336935 5.955112 7.763123 -15.183408 
-111.932213 46.892864 84.625961 -154.494176 2.843286 99.990067 18.976160 -3.428153 -45.980916 -3.118199 11.352465 41.561516 1.926279 -5.138005 -17.282724 nan nan nan -12.751234 -8.585282 2.779378 -3.044950 -7.980827 33.661203 6.110658 8.099152 -23.287128 nan nan nan -8.948545 17.703834 19.968871 -1.471607 -0.378812 6.161344 1.179218 5.419580 -1.394495 1.839114 13.649035 17.933111 4.089374 5.142356 21.802410 -5.290876 -17.163627 -8.207728 -67.804199 -29.854263 15.450957 148.368504 -57.356916 -107.137667 14.337030 -14.222169 -18.631288 5.568931 21.862205 -2.581116 69.423840 34.163768 12.898421 -134.670581 48.019540 -100.073429 5.601448 7.759974 -15.562693 
-111.873726 46.872776 84.696854 -155.379190 3.105614 99.710058 19.255309 -3.076258 -45.421695 -2.964569 11.472348 41.665329 1.715319 -4.984407 -17.396721 nan nan nan -13.006868 -8.458245 2.494843 -2.925996 -8.071036 33.760838 6.230298 8.173272 -23.476897 nan nan nan -9.048964 17.392010 19.309153 -1.450482 -0.501614 6.625971 1.058197 5.218308 -1.571988 1.859602 13.793757 18.381707 3.910315 5.405341 21.656689 -5.231174 -16.980357 -8.310186 -67.337081 -30.102683 15.067778 148.078353 -57.143627 -106.895413 14.233305 -14.269629 -18.304343 5.742366 21.553574 -2.627249 70.019815 34.116573 13.386757 -136.054258 48.192440 -101.739738 5.390994 8.150782 -16.191404 
-111.819283 46.839775 84.773788 -156.223981 3.358119 99.407260 19.549155 -2.796105 -44.836261 -2.793678 11.612285 41.718618 1.570144 -4.887859 -17.508597 nan nan nan -13.258070 -8.381723 2.345976 -2.754921 -8.220399 33.539712 6.446235 8.484556 -23.168284 nan nan nan -9.105511 17.045153 18.720061 -1.383387 -0.676463 7.007155 0.956447 5.010838 -1.748628 1.895283 14.044813 18.917272 3.735085 5.605906 21.645980 -5.213462 -16.701012 -8.253922 -67.232130 -30.318778 14.667909 147.773176 -56.799895 -106.329798 13.764717 -14.686444 -18.216510 5.826696 21.316798 -2.535448 70.517233 34.214627 13.881594 -137.308490 48.243161 -102.993214 5.660937 8.629482 -17.572236 
-111.757385 46.808960 84.880753 -157.235968 3.544091 99.076722 19.774245 -2.429024 -44.072378 -2.625778 11.892221 41.544638 1.451215 -4.778714 -17.653247 nan nan nan -13.513583 -8.248570 2.239040 -2.610334 -8.133323 33.113640 6.653163 8.836324 -22.860846 nan nan nan -9.272461 16.833060 18.284590 -1.311888 -0.779922 6.807586 0.915794 4.850361 -1.608608 1.987950 14.214105 19.576601 3.593992 5.713073 21.746018 -5.250127 -16.494010 -8.008172 -67.066743 -30.501242 14.197011 147.615932 -56.489955 -106.115806 13.325459 -15.000843 -18.124220 5.906168 21.027364 -2.376098 70.842071 34.223518 14.235138 -138.617400 48.294879 -104.530551 5.595988 9.128237 -19.033551 
-111.682030 46.777786 85.017189 -158.313952 3.735399 98.659014 19.951275 -2.015533 -43.198800 -2.476567 12.025063 41.369033 1.316437 -4.571792 -17.804193 nan nan nan -13.782209 -8.245547 2.337379 -2.453302 -7.908848 32.506958 6.888019 9.285370 -22.640274 nan nan nan -9.242097 16.628741 18.128839 -1.404845 -0.799185 6.227460 0.866509 4.640728 -1.241372 1.918894 14.284694 20.068158 3.603063 5.841211 21.888042 -5.308861 -16.234143 -7.898607 -66.660624 -30.775758 13.643450 147.436956 -56.608089 -106.252035 13.569886 -15.431252 -17.782614 5.930845 20.555870 -2.204916 71.026483 34.285453 14.470045 -139.884398 49.153017 -106.138959 3.193456 9.756572 -18.690983 
